<svg xmlns="http://www.w3.org/2000/svg" width="16" height="15.761" viewBox="0 0 16 15.761"><defs><style>.a{fill:#fff;}</style></defs><path class="a" d="M11.568,15.761H.837a.823.823,0,0,1-.589-.239A.792.792,0,0,1,0,14.929V13.682a.6.6,0,0,1,.233-.416A2.128,2.128,0,0,1,.6,12.974c.077-.042.164-.089.232-.123l3.21-1.724A3.76,3.76,0,0,1,2.869,9.4a5.954,5.954,0,0,1-.388-1.955V5.367a1.907,1.907,0,0,1,.209-.831,2.849,2.849,0,0,1,.581-.793,5.087,5.087,0,0,1,.838-.654,4.23,4.23,0,0,1,1.023-.462,3.745,3.745,0,0,1,1.086-.169A3.9,3.9,0,0,1,7.986,2.9a4.146,4.146,0,0,1,1.4,1.116,2.2,2.2,0,0,1,.535,1.355V7.446a6.512,6.512,0,0,1-.349,2.017,3.477,3.477,0,0,1-1.124,1.678l3.117,1.709.047.031a.8.8,0,0,1,.116.054l.163.092a1.366,1.366,0,0,1,.186.131,1.574,1.574,0,0,1,.163.154.713.713,0,0,1,.117.177.462.462,0,0,1,.046.193v1.247a.794.794,0,0,1-.248.593A.825.825,0,0,1,11.568,15.761ZM6.164,3.434A3.008,3.008,0,0,0,4.311,4.1c-.576.44-.868.859-.868,1.244V7.4a3.912,3.912,0,0,0,.069.687,5.738,5.738,0,0,0,.207.794,3.766,3.766,0,0,0,.377.794,2.35,2.35,0,0,0,.53.611.951.951,0,0,1,.353.855.522.522,0,0,1-.023.153c-.016.053-.034.1-.054.153a.806.806,0,0,1-.077.145.829.829,0,0,1-.1.122c-.037.037-.076.072-.115.107a.48.48,0,0,1-.139.084L1.291,13.629l-.061.031a1,1,0,0,0-.246.137v.87H11.313V13.8a1.157,1.157,0,0,0-.23-.137l-.092-.046L7.9,11.92a.949.949,0,0,1-.507-.778.939.939,0,0,1,.369-.855A2.527,2.527,0,0,0,8.592,9,5.447,5.447,0,0,0,8.854,7.4V5.342A1.758,1.758,0,0,0,8.015,4.09,2.945,2.945,0,0,0,6.164,3.434ZM15.108,14.19H13.357c-.055-.185-.1-.328-.132-.427a1.759,1.759,0,0,0-.157-.328,1.049,1.049,0,0,0-.256-.3h2.131V12.2a.572.572,0,0,1-.058-.033.449.449,0,0,0-.058-.032l-.066-.033a.516.516,0,0,1-.058-.033.221.221,0,0,0-.05-.025.429.429,0,0,1-.058-.024L11.226,10.2c-.064-.042-.125-.086-.182-.131a.72.72,0,0,1-.14-.148,1.78,1.78,0,0,1-.108-.172,1.148,1.148,0,0,1-.083-.189.61.61,0,0,1-.033-.2.989.989,0,0,1,.4-.918,2.859,2.859,0,0,0,.917-1.4,5.478,5.478,0,0,0,.306-1.7V3.133c0-.425-.311-.88-.925-1.354a3.278,3.278,0,0,0-4.031-.041c-.076-.022-.16-.041-.248-.057s-.18-.03-.289-.041l-.256-.025C6.477,1.61,6.38,1.6,6.27,1.6s-.209-.009-.264-.009A4.74,4.74,0,0,1,7.517.451,4.159,4.159,0,0,1,9.359,0a4.019,4.019,0,0,1,1.462.287,4.778,4.778,0,0,1,1.28.73A4.142,4.142,0,0,1,13,2.026a2.092,2.092,0,0,1,.355,1.108V5.348a5.775,5.775,0,0,1-.083.927,7.3,7.3,0,0,1-.264,1.058A4.721,4.721,0,0,1,12.5,8.407a3.554,3.554,0,0,1-.76.861l3.37,1.837.215.1a1.781,1.781,0,0,1,.455.336.647.647,0,0,1,.223.451V13.3a.906.906,0,0,1-.116.451.825.825,0,0,1-.322.32A.926.926,0,0,1,15.108,14.19Z"/></svg>